<svg xmlns="http://www.w3.org/2000/svg" width="630" height="783" fill="none" viewBox="0 0 630 783"><path fill="#fff" d="M114.751 327.15q-9.9-1.35-17.1-1.35-9.45 0-18.45 1.35-9.9.9-16.2.9l-7.65.45q-3.6 0-5.85-2.25-2.25-1.8-2.7-7.65l-7.65-.45q-2.25-13.5-2.25-64.8l.45-68.85v-16.2l-22.5.45-.45-9.45-8.55.45-1.35-63.9h31.95q0-27.9 11.7-52.65Q59.85 18 86.4 9v.45Q114.3 0 153.9 0q15.75 0 21.6.45.45 1.8.9 4.5.9 2.7 2.25 3.6 1.8.9 5.85.9 4.5 12.15 4.5 28.8 0 10.35-1.8 25.65-1.35 9.45-1.35 15.75-3.15-.45-9.9-.45-14.85 0-31.5 2.7-16.2 2.25-18.45 2.7-4.95.9-7.65 4.5t-3.15 8.1h62.55q-1.8 6.75-1.8 9h10.8q-2.25 10.8-2.25 12.6v1.35q.45.45.45 1.8v9.45q0 5.85-.9 13.95-1.35 16.2-1.35 26.55l-27.9-1.8q-27-2.25-40.05-2.25zm35.1-170.55 19.35 1.35q2.25-22.05 2.25-27.45v-22.05q0-5.4.45-6.75h-68.85q-1.35-5.4-1.35-10.8 0-18 14.4-19.8 35.55-5.4 50.4-5.4h5.85q3.15-24.3 3.15-36.45 0-14.4-3.15-24.3-6.75-.45-18.45-.45-39.6 0-66.15 9-25.2 8.1-36 30.15-10.8 21.6-10.8 47.7 0 6.3.45 9.45-4.95-.45-15.3-.45H9l1.35 54.9q5.85-.45 16.65-.45h15.3q0 16.65-.45 29.7l-.45 71.55q0 45.9 1.8 58.05 3.15.45 8.55.45 5.85 0 18.45-.9 9.45-1.35 20.7-1.35 7.2 0 10.35.45v-158.4zm234-57.6q.9 7.2.9 11.25v4.5q-.45 12.15-.45 35.1l.45 50.4q.45 17.1.45 50.85 0 26.55-1.35 54.45v3.15q0 9.45-1.35 13.95t-8.1 5.85h-6.3q-6.3 0-16.2-.9l-13.05-.45q-3.15 0-9.45.9l-9.9.45q-7.2-1.8-9.45-9-5.85-2.25-7.2-4.95-23.4 14.4-46.35 14.4-23.85 0-42.3-20.7-18-20.7-27.9-51.75-9.45-31.5-9.45-61.65 0-34.2 11.7-58.5 11.7-24.75 31.95-37.35 20.7-12.6 46.35-12.6 12.6 0 19.35 1.8 7.2 1.8 13.05 9 .45-2.25.9-7.2t2.25-6.3 5.85-1.35 7.2.9q3.6.45 6.75.45h4.05q11.7 0 44.55 2.25l4.05 4.05.45 4.95h4.5zm-62.55-10.8-12.15-.45q-4.5 0-5.4 5.85-.9 5.4-.9 15.75v2.25q-4.05-9.9-10.35-14.4t-13.95-5.4-21.6-.9q-21.15.45-38.7 14.4-17.1 13.5-27 36.9t-9.9 52.65q0 26.55 7.2 54.45t22.05 47.25q15.3 18.9 36.9 18.9 15.3 0 31.5-7.2 16.65-7.65 27.9-18.9 0 2.7-.9 7.65-.9 4.5-.9 8.1 0 7.65 5.4 9.9 3.6 0 9.9-.9l9.45-.45 14.85.45q9.9.9 14.4.9h5.4q3.6-.9 4.5-3.6 1.35-3.15 1.35-8.55v-6.3q1.8-26.55 1.8-58.95l-.45-49.5q-.9-33.3-.9-50.4 0-21.15.45-31.95v-4.5q0-3.6-.9-10.8-12.6-.9-44.1-2.25zm-40.05 63q11.25 0 15.75 2.25 4.95 1.8 6.3 8.55 1.35 6.3 1.35 21.6v24.75q0 16.2-1.8 25.2-1.35 9-7.65 13.95-5.85 4.95-18.45 4.95-18.45 0-29.25-13.95t-10.8-34.65q0-14.85 2.7-23.85 2.7-12.15 13.5-20.25 10.8-8.55 28.35-8.55m-28.35 39.15q-2.7 9-2.7 22.5 0 35.1 26.55 35.1 11.25 0 16.2-4.95t5.85-13.5q1.35-8.55 1.35-26.1v-11.7l.45-13.5q0-7.2-2.25-10.35-1.8-3.15-8.1-3.15-15.75 0-25.2 7.2t-12.15 18zm218.963-70.65q11.7 70.2 20.25 104.85l4.05-33.3q.9-5.85 4.05-31.05t7.2-44.1q4.05-19.35 9-30.6l21.6-.45q7.2-.45 21.6-.45 4.5 0 31.5 1.35-.9 2.25-2.25 8.55l11.25.45q-21.15 82.8-34.65 144.45-11.25 51.75-25.65 85.95-13.95 34.65-45.9 58.5-31.5 24.3-85.95 24.3h-4.95q-7.2 0-13.5-.9-.45-1.8-.9-4.5-.45-2.25-2.25-3.6-1.8-.9-5.85-.9-5.85-19.8-5.85-39.15 0-16.2 2.7-29.25l19.8.45q4.5.45 13.05.45 12.6 0 19.35-4.05t6.75-15.3q0-4.05-.45-7.2v.45q-15.3-83.7-54-220.95 13.95 2.25 22.95 2.25l17.1-.45h14.4q13.05 0 18.9.9l4.05 3.6q0 3.15.9 4.5.9.9 4.05.9l4.05 3.6zm-63.9-29.25h-8.1q-7.65 0-11.7-.9 4.95 16.65 7.65 28.8 16.2 58.5 26.55 101.25 10.8 42.3 18 84.15.45 3.15.45 8.1 0 13.5-8.55 18.45-8.1 4.95-22.5 4.95-9 0-13.95-.45l-14.4-.45q-2.25 12.15-2.25 24.75 0 20.7 4.95 35.1 4.95.45 14.85.45 54.9 0 85.5-23.85 31.05-23.4 44.1-56.7 13.05-33.75 24.3-87.3 4.95-24.3 8.55-37.35l4.05-16.65q10.35-45.9 19.8-82.8-7.65-.45-21.15-.45l-38.7.45h-5.85q-4.95 12.15-8.55 31.95-3.15 19.35-7.2 53.1-4.5 32.85-7.2 49.5t-6.75 28.35q-11.25-31.05-28.8-127.8l-6.3-34.2q-11.7-.9-18.45-.9zM220.051 534.5q-14.4 24.75-31.05 49.05t-45.45 65.25l-28.35 40.05q19.8-1.8 51.75-1.8h24.3l9.45-.45q3.6 0 5.85 1.8t3.15 7.65h7.65q2.25 13.5 2.25 30.6 0 9-.9 22.5-.9 13.05-1.35 18.9l-.9 10.35q-55.8-3.15-102.6-3.15-52.2 0-88.2 2.25-1.8-4.5-2.7-9.45-4.95 0-6.3.45-5.85-14.85-5.85-34.2l.45-13.05q.45-4.5.45-13.05 0-5.85-.9-16.65 14.4-32.85 35.55-64.8t55.8-79.65l9.9-13.05q-21.15-1.8-46.35-2.7t-42.3-.9q-.9-1.8-1.8-4.5t-1.8-4.5h-5.4q-4.5-7.65-4.5-26.1 0-19.35-1.35-28.8-1.35-9.9-8.55-17.1 49.05-4.5 94.05-4.5 18 0 55.8.9 39.6.9 61.2.9l.9 9h8.1q1.35 10.35 1.35 24.75 0 16.65-.45 25.2v-.45q-.45 9-.45 26.55zm-12.6-35.55q.9-17.1.9-25.65 0-11.25-1.35-22.05-20.25 0-58.05-.9l-55.8-.45q-21.15 0-43.2.45t-40.05 2.7l.9 1.8v.45q2.7 9 2.7 26.55v9.9q0 18.9 3.6 25.2 19.35 0 54.45 1.8t54 4.05l-21.6 30.15q-31.95 44.1-53.1 76.05T15.3 692q.45 4.95.45 14.85l-.45 26.55q0 18.45 4.05 30.6 48.15-2.25 85.5-2.25 51.3 0 98.55 2.7v-.9q2.25-23.4 2.25-45.45 0-13.95-1.35-26.55v-1.35q-14.85.9-25.2.9-9.9 0-16.65.45-16.2 0-33.3.9t-38.25 3.6l.45-.45q18-27.9 46.35-67.5 47.25-67.5 69.3-104.85v-.45zm89.919 173.7q0 11.7 1.35 19.35 1.8 7.2 6.75 15.75v.9q5.85 3.15 14.4 3.15 9.45 0 15.75-8.55 6.3-9 6.3-26.55v-4.5q9.9.9 14.85.9l15.75-.45q4.95-.45 15.3-.45 7.65 0 20.25 2.25l-.45 7.65 9.45 1.35q0 48.6-10.8 69.75-10.35 21.15-27 25.2-16.2 4.5-49.95 4.5-27 0-43.2-4.05-15.75-3.6-27-17.1-20.7-17.1-30.6-49.05t-9.9-69.3q0-43.65 10.35-71.55 9.45-21.6 32.85-32.85 23.4-11.7 52.2-11.7 34.65 0 58.05 14.85 23.85 14.85 35.1 40.05 11.7 24.75 11.7 54.45 0 2.7-1.35 22.95-8.55 2.25-45.45 4.05-36.45 1.8-64.8 1.8-6.75 0-9.9-.45zm-13.5-22.05q5.4 1.35 31.05 1.35 24.75 0 53.55-1.35 28.8-1.8 36-3.6.9-13.5.9-19.35 0-45-20.25-70.2-19.8-25.65-71.1-25.65-27 0-49.95 11.25-22.5 10.8-31.05 30.15-10.35 27.9-10.35 74.7t15.75 81 49.05 39.15l19.8.45q15.3.9 23.85.9 21.15 0 36-4.5 15.3-4.5 23.85-16.65 5.85-4.95 8.1-20.7 2.25-16.2 4.5-49.5-6.75-1.35-17.55-1.35l-17.55.45q-5.4.45-14.85.45-5.4 0-6.75-.45v3.6q0 17.55-8.1 26.55-7.65 9-18.9 9-34.65 0-36-57.6zm72-35.55q0 1.35-3.15 1.35-2.25 0-9-.45t-16.2-.45l-29.25.45q-8.55 0-11.25-.9t-2.7-4.05q0-34.65 38.25-34.65 8.55 0 15.75 4.5 8.1 4.05 12.6 12.15 4.95 8.1 4.95 17.1zm-10.8-21.6q-5.85-3.6-13.5-3.6-15.75 0-22.95 5.4-6.75 5.4-9.45 16.2l8.55-.45h19.8l19.35.45 4.5.45v-1.8q0-10.35-5.85-16.2zm204.001 47.25q10.8 17.1 15.75 25.65 21.15 33.3 36 58.5 14.85 24.75 28.35 52.2-9 0-29.7.9-22.5.9-34.65.9-9 0-14.4-2.25-4.95-1.8-8.1-8.1l-4.05-.9q-13.5-20.7-25.2-46.8-4.5-9.9-7.2-14.85l.45 26.55q0 27-3.6 45-6.75-.45-20.25-.45h-7.2q-14.4.9-22.5.9h-7.2q-4.95.45-8.1-1.8-2.7-2.25-2.7-7.65-2.25 0-8.55-.9-1.8-47.25-1.8-108.45 0-36.45.9-111.15.9-75.6.9-115.65 13.95 0 21.6-.45l24.75-.45q4.5 0 14.4.9l9.45.45v8.55l9 .45v102.6q0 9-.45 13.5l-.45 13.95 8.1-13.5q12.15-20.25 23.4-33.75 9.45 3.15 24.75 3.15l19.35-.45q13.5-.9 20.7-.9 9.9 0 15.75.45-1.35 2.25-3.15 4.5-1.35 1.8-2.7 4.05 9 0 14.85.45-15.3 23.85-28.35 41.85-13.05 17.55-33.3 43.65zm14.4 124.65q10.35 0 29.25-.9 15.3-.9 20.25-.9-11.7-23.4-24.3-44.55t-34.65-56.25l-19.35-31.05 25.65-33.75q35.1-46.35 48.6-67.05h-6.3l-19.35.45q-15.3.9-22.95.9-16.2 0-22.5-2.7-10.35 12.15-19.35 28.8-13.95 24.3-26.55 35.55-.9-9.9-.9-17.1 0-13.05.45-20.25l.45-21.15v-98.55q-8.1-.9-13.5-.9l-16.2.45-31.5.45q0 37.35-.9 111.15t-.9 111.6q0 56.7 1.8 103.95 9.9.9 14.85.9 7.2 0 19.8-.9l16.65-.45 8.1.45q2.7-14.4 2.7-39.6l-.45-27.9q-.45-7.2-.45-19.35 8.1 10.35 14.4 22.05 6.75 11.25 14.4 27.9 13.05 26.55 19.8 36.9 7.65 1.8 22.95 1.8"/></svg>